#!OML:ASF F:\VICON\USERDATA\INSTALL\rory3\rory3.ASF
:FULLY-SPECIFIED
:DEGREES
431
root -1.25399 17.4655 10.7475 -182.225 0.704612 -180.623
lowerback 12.396 1.43247 -4.42056
upperback 0.294343 1.38273 0.266808
thorax -6.7653 0.86125 2.52441
lowerneck -18.9872 -6.41648 -12.3987
upperneck 29.8948 -10.5806 10.0837
head 14.7585 -5.29071 4.11442
rclavicle -5.69021e-015 -3.57812e-015
rhumerus -37.621 -18.8023 -77.0306
rradius 33.7084
rwrist 8.69755
rhand -18.3992 4.48323
rfingers 7.12502
rthumb 7.88505 -25.3497
lclavicle -5.69021e-015 -3.57812e-015
lhumerus -35.0084 3.71329 77.4346
lradius 35.0567
lwrist -1.19082
lhand -17.118 27.0092
lfingers 7.12502
lthumb 9.12146 56.792
rfemur -2.57051 7.7504 1.84315
rtibia 25.8268
rfoot -14.274 6.06703
rtoes -17.2363
lfemur -3.05294 -9.15504 -11.6066
ltibia 23.9962
lfoot -17.6531 -4.78308
ltoes -19.674
432
root -1.13942 17.4591 10.7667 -182.167 0.828136 -180.556
lowerback 12.3377 1.49272 -4.34127
upperback 0.348225 1.47822 0.226307
thorax -6.67916 0.903322 2.42065
lowerneck -19.1462 -6.39326 -12.3349
upperneck 29.8214 -10.4672 10.0145
head 14.7347 -5.22422 4.09489
rclavicle 1.19271e-015 1.44119e-014
rhumerus -37.2704 -18.5308 -77.4377
rradius 33.6963
rwrist 8.52701
rhand -18.5906 4.44665
rfingers 7.12502
rthumb 7.70036 -25.3932
lclavicle 1.19271e-015 1.44119e-014
lhumerus -34.7396 4.01581 77.0829
lradius 34.9302
lwrist -1.53117
lhand -17.0413 26.6595
lfingers 7.12502
lthumb 9.19546 56.439
rfemur -2.79719 7.71842 2.12344
rtibia 25.9619
rfoot -15.0579 6.4776
rtoes -18.4366
lfemur -3.12796 -9.52569 -11.15
ltibia 23.9984
lfoot -17.2926 -4.44712
ltoes -19.8269
433
root -1.02645 17.4506 10.7869 -182.08 1.15922 -180.66
lowerback 12.2998 1.65999 -4.43312
upperback 0.288437 1.67955 0.135063
thorax -6.73711 1.00407 2.33889
lowerneck -19.0672 -6.33858 -12.2636
upperneck 29.7857 -10.373 9.92747
head 14.6754 -5.18679 4.06666
rclavicle 2.1593e-014 -6.95746e-015
rhumerus -37.1829 -18.198 -77.7904
rradius 33.7633
rwrist 8.35414
rhand -18.8315 4.27579
rfingers 7.12502
rthumb 7.46776 -25.5724
lclavicle 2.1593e-014 -6.95746e-015
lhumerus -34.7215 4.05114 76.7962
lradius 34.8969
lwrist -1.75838
lhand -17.1806 25.9955
lfingers 7.12502
lthumb 9.06112 55.7809
rfemur -3.14203 7.6023 2.20131
rtibia 26.0689
rfoot -15.7604 7.10139
rtoes -20.1665
lfemur -3.17238 -9.99139 -10.8965
ltibia 23.944
lfoot -16.9286 -3.90489
ltoes -21.8372
434
root -0.908871 17.4401 10.8022 -182.096 1.15668 -180.734
lowerback 12.4036 1.72101 -4.48684
upperback 0.241464 1.74191 0.0676277
thorax -6.85003 1.03782 2.28318
lowerneck -19.0553 -6.337 -12.1949
upperneck 29.8192 -10.3452 9.7867
head 14.6687 -5.18407 4.00267
rclavicle -9.31803e-015 2.18663e-015
rhumerus -37.1832 -17.9682 -78.0335
rradius 33.8917
rwrist 8.37448
rhand -18.7036 4.23108
rfingers 7.12502
rthumb 7.59123 -25.6127
lclavicle -9.31803e-015 2.18663e-015
lhumerus -34.7461 3.91878 76.5587
lradius 34.8626
lwrist -1.82792
lhand -17.0413 25.8248
lfingers 7.12502
lthumb 9.19551 55.6043
rfemur -3.17202 7.38805 2.43068
rtibia 26.1345
rfoot -16.3342 7.45624
rtoes -20.9078
lfemur -3.17497 -10.8248 -10.6038
ltibia 23.8768
lfoot -16.5745 -3.37276
ltoes -24.4423
435
root -0.783923 17.4366 10.8192 -182.153 0.893392 -180.535
lowerback 12.5832 1.6697 -4.35912
upperback 0.235268 1.68722 0.123987
thorax -6.95145 1.00999 2.27706
lowerneck -19.1129 -6.32802 -12.2391
upperneck 29.8576 -10.2846 9.7341
head 14.689 -5.16533 4.00088
rclavicle -2.19781e-014 -3.37934e-015
rhumerus -37.0968 -17.6587 -78.2651
rradius 33.9866
rwrist 8.30427
rhand -18.5301 4.43919
rfingers 7.12502
rthumb 7.75872 -25.3985
lclavicle -2.19781e-014 -3.37934e-015
lhumerus -34.7536 4.0067 76.315
lradius 34.8855
lwrist -2.00404
lhand -16.8217 26.0365
lfingers 7.12502
lthumb 9.40736 55.8065
rfemur -3.04599 7.10203 3.08682
rtibia 26.2146
rfoot -16.9036 7.41012
rtoes -20.4125
lfemur -3.21711 -11.6355 -9.93569
ltibia 23.7489
lfoot -16.1493 -3.28943
ltoes -24.0837
436
root -0.659493 17.4359 10.8353 -182.268 0.651513 -180.417
lowerback 12.7539 1.64557 -4.257
upperback 0.239447 1.66426 0.130795
thorax -7.03838 0.997739 2.22733
lowerneck -19.101 -6.30218 -12.3736
upperneck 29.9189 -10.24 9.80838
head 14.7215 -5.15563 4.06607
rclavicle -9.06955e-015 1.61016e-014
rhumerus -37.0877 -17.3106 -78.5411
rradius 34.1185
rwrist 8.03133
rhand -18.5612 4.79704
rfingers 7.12502
rthumb 7.72867 -25.0417
lclavicle -9.06955e-015 1.61016e-014
lhumerus -34.7885 4.06433 76.0713
lradius 34.9591
lwrist -2.22966
lhand -16.8852 26.0175
lfingers 7.12502
lthumb 9.34607 55.7904
rfemur -2.85 6.7348 3.69173
rtibia 26.2686
rfoot -17.5828 7.25747
rtoes -19.931
lfemur -3.19079 -12.2614 -9.36966
ltibia 23.5877
lfoot -15.6787 -3.37564
ltoes -22.4381
437
root -0.535532 17.4336 10.8497 -182.415 0.437582 -180.448
lowerback 12.9239 1.65937 -4.2326
upperback 0.260093 1.67754 0.0520672
thorax -7.1096 1.00478 2.12383
lowerneck -19.0251 -6.30694 -12.4478
upperneck 29.9242 -10.2773 9.91466
head 14.7253 -5.17177 4.11747
rclavicle -3.77691e-015 -2.5842e-015
rhumerus -37.0963 -17.0859 -78.8117
rradius 34.2099
rwrist 8.08342
rhand -18.7049 5.07784
rfingers 7.12502
rthumb 7.59001 -24.766
lclavicle -3.77691e-015 -2.5842e-015
lhumerus -34.7657 3.93745 75.8308
lradius 35.0269
lwrist -2.36616
lhand -16.9379 26.1318
lfingers 7.12502
lthumb 9.29528 55.9069
rfemur -2.6053 6.35538 4.14798
rtibia 26.2765
rfoot -18.1308 7.04852
rtoes -19.3862
lfemur -3.1495 -12.7689 -8.99342
ltibia 23.5134
lfoot -15.2211 -3.42924
ltoes -22.998
438
root -0.409377 17.4335 10.866 -182.521 0.198498 -180.376
lowerback 13.1116 1.6297 -4.15768
upperback 0.296712 1.64427 0.0280179
thorax -7.17052 0.988047 2.05871
lowerneck -19.0296 -6.32195 -12.4138
upperneck 29.8535 -10.2565 9.8528
head 14.6849 -5.1586 4.08918
rclavicle 7.45443e-016 2.78299e-015
rhumerus -36.9278 -16.6947 -79.195
rradius 34.2757
rwrist 8.06709
rhand -18.8568 4.93569
rfingers 7.12502
rthumb 7.44339 -24.9134
lclavicle 7.45443e-016 2.78299e-015
lhumerus -34.6984 4.05464 75.5735
lradius 35.0277
lwrist -2.61473
lhand -17.1176 26.0947
lfingers 7.12502
lthumb 9.12185 55.8774
rfemur -2.41868 5.89246 4.74282
rtibia 26.3005
rfoot -18.6768 6.64798
rtoes -19.6235
lfemur -3.13402 -13.1999 -8.50365
ltibia 23.4577
lfoot -14.7846 -3.29649
ltoes -24.838
439
root -0.281662 17.4419 10.8861 -182.528 0.0330111 -180.089
lowerback 13.1555 1.60778 -3.93603
upperback 0.357873 1.65634 0.110425
thorax -7.12628 0.987314 2.01863
lowerneck -19.0911 -6.32224 -12.365
upperneck 29.748 -10.1593 9.71227
head 14.6239 -5.11266 4.03996
rclavicle -2.24751e-014 4.96962e-015
rhumerus -36.6314 -16.2892 -79.5302
rradius 34.3642
rwrist 7.92668
rhand -18.7686 4.52295
rfingers 7.12502
rthumb 7.52849 -25.3231
lclavicle -2.24751e-014 4.96962e-015
lhumerus -34.5297 4.35337 75.3763
lradius 34.9247
lwrist -2.90243
lhand -17.4411 26.0641
lfingers 7.12502
lthumb 8.80972 55.8602
rfemur -2.40567 5.38875 5.59894
rtibia 26.3426
rfoot -19.137 6.19469
rtoes -18.9947
lfemur -3.175 -13.5422 -7.76555
ltibia 23.3608
lfoot -14.2392 -3.02774
ltoes -25.6492
